<svg width="240" height="240" viewBox="0 0 240 240" fill="none" xmlns="http://www.w3.org/2000/svg">
<circle cx="120" cy="120" r="120" fill="#0097FF"/>
<path d="M108.04 102.536C105.992 98.7813 103.176 95.9227 99.592 93.96C96.008 91.9973 91.8267 91.016 87.048 91.016C81.7573 91.016 77.064 92.2107 72.968 94.6C68.872 96.9893 65.672 100.403 63.368 104.84C61.064 109.277 59.912 114.397 59.912 120.2C59.912 126.173 61.064 131.379 63.368 135.816C65.7573 140.253 69.0427 143.667 73.224 146.056C77.4053 148.445 82.2693 149.64 87.816 149.64C94.6427 149.64 100.232 147.848 104.584 144.264C108.936 140.595 111.795 135.517 113.16 129.032H82.44V115.336H130.824V130.952C129.629 137.181 127.069 142.941 123.144 148.232C119.219 153.523 114.141 157.789 107.912 161.032C101.768 164.189 94.856 165.768 87.176 165.768C78.5573 165.768 70.7493 163.848 63.752 160.008C56.84 156.083 51.3787 150.664 47.368 143.752C43.4427 136.84 41.48 128.989 41.48 120.2C41.48 111.411 43.4427 103.56 47.368 96.648C51.3787 89.6507 56.84 84.232 63.752 80.392C70.7493 76.4667 78.5147 74.504 87.048 74.504C97.1173 74.504 105.864 76.9787 113.288 81.928C120.712 86.792 125.832 93.6613 128.648 102.536H108.04ZM162.002 90.12V112.52H192.082V126.728H162.002V150.408H195.922V165H144.082V75.528H195.922V90.12H162.002Z" fill="white"/>
</svg>
